<svg width="20" height="20" xmlns="http://www.w3.org/2000/svg"><path d="M8.6213 5.3748l1.379 1.38 1.379-1.377c.565-.566 1.319-.878 2.121-.878.801 0 1.554.312 2.121.878.567.566.879 1.319.879 2.118 0 .8-.312 1.553-.879 2.119l-5.621 5.617-5.622-5.617c-.566-.566-.878-1.319-.878-2.119 0-.799.312-1.552.878-2.118.566-.566 1.32-.878 2.122-.878.801 0 1.555.312 2.122.878m8.06-1.061c-1.758-1.756-4.607-1.756-6.364 0-.114.113-.22.231-.318.353-.099-.122-.205-.24-.318-.353-1.758-1.756-4.607-1.756-6.364 0-1.758 1.756-1.758 4.603 0 6.359l6.081 6.075c.332.332.87.332 1.202 0l6.081-6.075c1.757-1.756 1.757-4.603 0-6.359" fill="#0AF" fill-rule="evenodd"/></svg>