<?xml version="1.0" encoding="UTF-8" standalone="no"?>
<!DOCTYPE svg PUBLIC "-//W3C//DTD SVG 1.1//EN" "http://www.w3.org/Graphics/SVG/1.1/DTD/svg11.dtd">
<svg version="1.1" xmlns="http://www.w3.org/2000/svg" xmlns:xlink="http://www.w3.org/1999/xlink" preserveAspectRatio="xMidYMid meet" viewBox="0 0 640 360" width="640" height="360"><defs><path d="M0 0L640 0L640 360L0 360L0 0Z" id="c4dZ6g24NU"></path><path d="M411.38 134.36C413.92 134.53 415.84 136.74 415.66 139.28C414.96 149.41 409.29 230.44 408.58 240.57C408.4 243.12 406.2 245.03 403.65 244.86C389.38 243.86 275.2 235.87 260.93 234.87C258.38 234.7 256.47 232.49 256.64 229.95C257.35 219.82 263.02 138.79 263.73 128.66C263.9 126.11 266.11 124.2 268.65 124.38C297.2 126.37 397.11 133.36 411.38 134.36Z" id="agbM87GSk"></path><path d="M407.69 137.57C410.23 137.75 412.15 139.95 411.97 142.49C411.31 151.93 406.03 227.44 405.37 236.88C405.19 239.42 402.99 241.34 400.44 241.16C386.86 240.21 278.2 232.61 264.62 231.66C262.08 231.49 260.16 229.28 260.34 226.74C261 217.3 266.28 141.79 266.94 132.35C267.12 129.81 269.32 127.89 271.86 128.07C299.03 129.97 394.1 136.62 407.69 137.57Z" id="baWrDYrFy"></path><path d="M380.37 113.08C382.89 113.08 384.93 115.12 384.93 117.63C384.93 127.65 384.93 207.82 384.93 217.84C384.93 220.36 382.89 222.4 380.37 222.4C366.25 222.4 253.29 222.4 239.17 222.4C236.65 222.4 234.62 220.36 234.62 217.84C234.62 207.82 234.62 127.65 234.62 117.63C234.62 115.12 236.65 113.08 239.17 113.08C267.41 113.08 366.25 113.08 380.37 113.08Z" id="a3ecybjfp"></path><path d="M378.85 116.54C381.4 116.54 383.46 118.6 383.46 121.15C383.46 130.62 383.46 206.31 383.46 215.77C383.46 218.32 381.4 220.38 378.85 220.38C365.23 220.38 256.31 220.38 242.69 220.38C240.14 220.38 238.08 218.32 238.08 215.77C238.08 206.31 238.08 130.62 238.08 121.15C238.08 118.6 240.14 116.54 242.69 116.54C269.92 116.54 365.23 116.54 378.85 116.54Z" id="f10zHsLPzX"></path></defs><g><g><g><use xlink:href="#c4dZ6g24NU" opacity="1" fill="#f7f7f7" fill-opacity="1"></use><g><use xlink:href="#c4dZ6g24NU" opacity="1" fill-opacity="0" stroke="#000000" stroke-width="1" stroke-opacity="0"></use></g></g><g><use xlink:href="#agbM87GSk" opacity="1" fill="#f7f7f7" fill-opacity="1"></use><g><use xlink:href="#agbM87GSk" opacity="1" fill-opacity="0" stroke="#000000" stroke-width="1" stroke-opacity="0"></use></g></g><g><use xlink:href="#baWrDYrFy" opacity="1" fill="#000000" fill-opacity="0"></use><g><use xlink:href="#baWrDYrFy" opacity="1" fill-opacity="0" stroke="#f0f0f0" stroke-width="6" stroke-opacity="1"></use></g></g><g><use xlink:href="#a3ecybjfp" opacity="1" fill="#f7f7f7" fill-opacity="1"></use><g><use xlink:href="#a3ecybjfp" opacity="1" fill-opacity="0" stroke="#000000" stroke-width="1" stroke-opacity="0"></use></g></g><g><use xlink:href="#f10zHsLPzX" opacity="1" fill="#000000" fill-opacity="0"></use><g><use xlink:href="#f10zHsLPzX" opacity="1" fill-opacity="0" stroke="#f0f0f0" stroke-width="6" stroke-opacity="1"></use></g></g></g></g></svg>